<svg width="17" height="17" viewBox="0 0 17 17" fill="none" xmlns="http://www.w3.org/2000/svg">
<path d="M8.32359 0.35744C8.39575 0.211227 8.60425 0.211228 8.67641 0.35744L10.9523 4.96894C10.981 5.027 11.0364 5.06724 11.1004 5.07655L16.1895 5.81604C16.3509 5.83948 16.4153 6.03777 16.2985 6.15158L12.616 9.74113C12.5697 9.78633 12.5485 9.85144 12.5595 9.91526L13.4288 14.9838C13.4564 15.1445 13.2877 15.267 13.1434 15.1912L8.59154 12.7981C8.53423 12.768 8.46577 12.768 8.40846 12.7981L3.85664 15.1912C3.71232 15.267 3.54364 15.1445 3.57121 14.9838L4.44053 9.91526C4.45147 9.85144 4.43031 9.78633 4.38395 9.74113L0.701452 6.15158C0.584695 6.03777 0.649123 5.83948 0.810478 5.81604L5.89956 5.07655C5.96364 5.06724 6.01903 5.027 6.04768 4.96894L8.32359 0.35744Z" />
</svg>
